<svg id="Group_790" data-name="Group 790" xmlns="http://www.w3.org/2000/svg" xmlns:xlink="http://www.w3.org/1999/xlink" width="992.69" height="214.783" viewBox="0 0 992.69 214.783">
  <defs>
    <clipPath id="clip-path">
      <rect id="Rectangle_361" data-name="Rectangle 361" width="992.69" height="214.783" fill="none"/>
    </clipPath>
  </defs>
  <g id="Group_789" data-name="Group 789" clip-path="url(#clip-path)">
    <path id="Path_2522" data-name="Path 2522" d="M54.565,115.66,76.1,64.185,97.631,115.66ZM119.552,168.1H152.53L91.811,33.646H60.772L.247,168.1h32.2l12.027-28.811h63.048Z" transform="translate(-0.034 -4.621)" fill="none" stroke="#a3a3a3" stroke-miterlimit="10" stroke-width="0.5"/>
    <path id="Path_2523" data-name="Path 2523" d="M244.47,143.763q-11.639,0-19.108-7.779t-7.469-20.84q0-13.059,7.469-20.839t19.108-7.779q11.639,0,19.109,7.779t7.469,20.839q0,13.065-7.469,20.84T244.47,143.763Zm5.238-81.823q-19.983,0-31.426,12.484V24.294H188.019V166.811h28.9V154.9q11.247,13.446,32.784,13.444a53.6,53.6,0,0,0,26.48-6.627,47.825,47.825,0,0,0,18.72-18.631q6.788-12,6.789-27.947T294.909,87.2a47.85,47.85,0,0,0-18.72-18.632A53.616,53.616,0,0,0,249.708,61.94Z" transform="translate(-25.824 -3.337)" fill="none" stroke="#a3a3a3" stroke-miterlimit="10" stroke-width="0.5"/>
    <path id="Path_2524" data-name="Path 2524" d="M388.91,149.756q-11.639,0-19.205-7.779t-7.565-20.84q0-13.059,7.565-20.84t19.205-7.779q11.639,0,19.108,7.779t7.469,20.84q0,13.064-7.469,20.84T388.91,149.756Zm0,24.586q16.487,0,29.486-6.818a51.166,51.166,0,0,0,20.37-18.919,51.737,51.737,0,0,0,7.371-27.467,51.743,51.743,0,0,0-7.371-27.466A51.19,51.19,0,0,0,418.4,74.752a67.377,67.377,0,0,0-59.07,0,51,51,0,0,0-20.466,18.919,51.719,51.719,0,0,0-7.371,27.466,51.714,51.714,0,0,0,7.371,27.467,50.975,50.975,0,0,0,20.466,18.919A63.084,63.084,0,0,0,388.91,174.341Z" transform="translate(-45.529 -9.331)" fill="none" stroke="#a3a3a3" stroke-miterlimit="10" stroke-width="0.5"/>
    <path id="Path_2525" data-name="Path 2525" d="M559.868,69.715v51.091q0,13.83-6.6,20.84t-17.459,7.011q-21.146,0-21.145-24.97V69.715H484.4V128.1q0,23.048,12.028,34.765t32.59,11.717a45.576,45.576,0,0,0,18.042-3.553,40.125,40.125,0,0,0,14.355-10.276V173.05h28.711V69.715Z" transform="translate(-66.531 -9.575)" fill="none" stroke="#a3a3a3" stroke-miterlimit="10" stroke-width="0.5"/>
    <path id="Path_2526" data-name="Path 2526" d="M694.063,143.289a19.576,19.576,0,0,1-12.221,3.841q-6.211,0-9.6-3.553t-3.395-10.084V91.429h25.994V68.381H668.844V43.22H638.581V68.381h-16.1V91.429h16.1v42.448q0,18.25,10.184,27.658t28.807,9.412a56.031,56.031,0,0,0,13.677-1.633,31.2,31.2,0,0,0,10.961-4.9Z" transform="translate(-85.495 -5.936)" fill="none" stroke="#a3a3a3" stroke-miterlimit="10" stroke-width="0.5"/>
    <path id="Path_2527" data-name="Path 2527" d="M926.6,67.934a51.545,51.545,0,0,0-21.436,4.418,42.762,42.762,0,0,0-16.2,12.484,35.31,35.31,0,0,0-14.355-12.58,45.251,45.251,0,0,0-19.982-4.322A48.408,48.408,0,0,0,836.1,71.392a38.21,38.21,0,0,0-14.258,9.987V69.47h-28.9V172.805H823.2V120.946q0-13.443,6.208-20.264t16.683-6.818q19.787,0,19.788,24.392v54.549h30.263V120.946q0-13.443,6.208-20.264t16.878-6.818q9.5,0,14.646,6.05t5.141,18.343v54.549h30.263V113.647q0-22.854-11.542-34.284T926.6,67.934Z" transform="translate(-108.907 -9.331)" fill="none" stroke="#a3a3a3" stroke-miterlimit="10" stroke-width="0.5"/>
    <path id="Path_2528" data-name="Path 2528" d="M1074.357,90.6a25.681,25.681,0,0,1,17.071,5.858,24.724,24.724,0,0,1,8.536,15.654h-51.408q1.55-9.984,8.536-15.749T1074.357,90.6Zm54.124,30.924q0-16.133-7.081-28.33a47.969,47.969,0,0,0-19.5-18.727,62.416,62.416,0,0,0-56.161.288,50.754,50.754,0,0,0-19.981,19.015,52.412,52.412,0,0,0-7.275,27.37,51.712,51.712,0,0,0,7.371,27.466,50.276,50.276,0,0,0,20.951,18.919q13.576,6.821,31.233,6.818,28.321,0,43.066-16.71l-16.1-17.287a35.051,35.051,0,0,1-11.736,7.587,40.386,40.386,0,0,1-14.453,2.4q-11.835,0-19.787-5.57a24.311,24.311,0,0,1-10.088-15.173H1127.9Q1128.48,122.1,1128.481,121.522Z" transform="translate(-139.886 -9.331)" fill="none" stroke="#a3a3a3" stroke-miterlimit="10" stroke-width="0.5"/>
  </g>
</svg>
