<svg id="Group_807" data-name="Group 807" xmlns="http://www.w3.org/2000/svg" xmlns:xlink="http://www.w3.org/1999/xlink" width="269.014" height="146.367" viewBox="0 0 269.014 146.367">
  <defs>
    <clipPath id="clip-path">
      <rect id="Rectangle_230" data-name="Rectangle 230" width="269.014" height="146.367" fill="none"/>
    </clipPath>
  </defs>
  <g id="Group_682" data-name="Group 682" transform="translate(0 0)" clip-path="url(#clip-path)">
    <path id="Path_2501" data-name="Path 2501" d="M207.686,104.009v42.242H177.449A72.929,72.929,0,0,1,128.6,127.33q-1.7-1.529-3.291-3.173a72.906,72.906,0,0,1-20.734-48.2v-.021q-.052-1.425-.052-2.864,0-1.566.066-3.114v-.007A31.138,31.138,0,0,0,45.71,59.017,77.467,77.467,0,0,0,24.851,18.763a72.829,72.829,0,0,1,97.377-.1c1.127,1.013,2.212,2.049,3.27,3.125a72.557,72.557,0,0,1,20.852,47.8v0a23.378,23.378,0,0,0-.236,3.281,24.346,24.346,0,0,0,.229,3.267v.01A34.51,34.51,0,0,0,149.7,86.483a31.127,31.127,0,0,0,27.75,17.526Z" transform="translate(61.328 0.115)" fill="#e84a42"/>
    <path id="Path_2502" data-name="Path 2502" d="M183.1,127.381a72.823,72.823,0,0,1-96.978-.1q-1.685-1.509-3.277-3.121A72.581,72.581,0,0,1,61.865,75.1v-.028c-.021-.69-.028-1.384-.028-2.081s.007-1.384.028-2.074v-.031A30.41,30.41,0,0,0,58.65,59.245,31.837,31.837,0,0,0,30.342,41.861H.106V.247H24.3Q27.29,0,30.342,0A72.9,72.9,0,0,1,79.554,19.019c1.065.964,2.1,1.963,3.1,2.993a72.927,72.927,0,0,1,20.869,50.981v.194a31.14,31.14,0,0,0,58.818,14.069A77.461,77.461,0,0,0,183.1,127.381" transform="translate(0.262 0.001)" fill="#e84a42"/>
    <path id="Path_2503" data-name="Path 2503" d="M79.816,65.55A72.922,72.922,0,0,1,30.867,84.567H0V42.326H30.867A31.834,31.834,0,0,0,58.859,25.042,77.009,77.009,0,0,0,79.816,65.55" transform="translate(0 61.798)" fill="#e84a42"/>
    <path id="Path_2504" data-name="Path 2504" d="M133.853.246V41.86H103.877a31.136,31.136,0,0,0-28.062,17.63A77.112,77.112,0,0,0,54.769,18.92,72.923,72.923,0,0,1,103.877,0q3.053,0,6.037.246Z" transform="translate(135.161 -0.001)" fill="#e84a42"/>
  </g>
</svg>
