<?xml version="1.0" encoding="utf-8"?>
<!-- Generator: Adobe Illustrator 26.0.1, SVG Export Plug-In . SVG Version: 6.00 Build 0)  -->
<svg version="1.1" id="Layer_1" xmlns="http://www.w3.org/2000/svg" xmlns:xlink="http://www.w3.org/1999/xlink" x="0px" y="0px"
	 viewBox="0 0 296 73" style="enable-background:new 0 0 296 73;" xml:space="preserve">
<style type="text/css">
	.st0{enable-background:new    ;}
	.st1{fill:#191919;}
</style>
<g class="st0">
	<path class="st1" d="M30.7,31.5c2.1,2.3,3.2,5.5,3.2,9.6V59h-9.4V42.3c0-2.1-0.5-3.6-1.6-4.8c-1.1-1.1-2.5-1.7-4.3-1.7
		c-1.8,0-3.2,0.6-4.3,1.7c-1.1,1.1-1.6,2.7-1.6,4.8V59H3.4V18.3h9.4v14.1c1-1.4,2.3-2.4,3.9-3.2c1.6-0.8,3.5-1.2,5.6-1.2
		C25.8,28,28.6,29.1,30.7,31.5z"/>
	<path class="st1" d="M54,29.4c1.6-1,3.5-1.5,5.5-1.5v10h-2.6c-2.3,0-4.1,0.5-5.3,1.5c-1.2,1-1.8,2.8-1.8,5.3V59h-9.4V28.3h9.4v5.1
		C51,31.7,52.4,30.4,54,29.4z"/>
	<path class="st1" d="M63.9,35.3c1.2-2.4,2.8-4.2,4.9-5.5c2.1-1.3,4.3-1.9,6.9-1.9c2,0,3.9,0.4,5.5,1.3c1.7,0.8,3,2,3.9,3.4V18.3
		h9.4V59h-9.4v-4.4c-0.9,1.5-2.1,2.6-3.8,3.5c-1.6,0.9-3.5,1.3-5.7,1.3c-2.5,0-4.8-0.7-6.9-2c-2.1-1.3-3.7-3.2-4.9-5.6
		c-1.2-2.4-1.8-5.2-1.8-8.3C62.1,40.4,62.7,37.7,63.9,35.3z M83.2,38.1c-1.3-1.4-2.9-2-4.8-2c-1.9,0-3.5,0.7-4.8,2
		c-1.3,1.3-2,3.2-2,5.5c0,2.3,0.7,4.2,2,5.6c1.3,1.4,2.9,2.1,4.8,2.1c1.9,0,3.5-0.7,4.8-2c1.3-1.4,2-3.2,2-5.6S84.5,39.5,83.2,38.1z
		"/>
	<path class="st1" d="M120.1,59l-9.4-12.9V59h-9.4V18.3h9.4v22.5l9.3-12.5h11.6l-12.8,15.4L131.8,59H120.1z"/>
	<path class="st1" d="M154.1,59l-9.4-12.9V59h-9.4V18.3h9.4v22.5l9.3-12.5h11.6l-12.8,15.4L165.8,59H154.1z"/>
	<path class="st1" d="M217.6,31.4c2.3,2.3,3.4,5.5,3.4,9.6V59h-9.3V42.3c0-2-0.5-3.5-1.6-4.6c-1-1.1-2.5-1.6-4.3-1.6
		s-3.3,0.5-4.3,1.6c-1,1.1-1.6,2.6-1.6,4.6V59h-9.4V42.3c0-2-0.5-3.5-1.6-4.6c-1-1.1-2.5-1.6-4.3-1.6s-3.3,0.5-4.3,1.6
		c-1,1.1-1.6,2.6-1.6,4.6V59h-9.4V28.3h9.4v3.9c1-1.3,2.2-2.3,3.7-3.1c1.5-0.8,3.3-1.1,5.2-1.1c2.3,0,4.4,0.5,6.2,1.5
		c1.8,1,3.2,2.4,4.3,4.2c1.1-1.7,2.5-3.1,4.3-4.1s3.8-1.6,6-1.6C212.3,28,215.4,29.1,217.6,31.4z"/>
	<path class="st1" d="M271.6,28.3L263.3,59h-10.4l-4.8-19.9l-5,19.9h-10.3l-8.4-30.7h9.4l4.3,21.9l5.2-21.9h10l5.2,21.8l4.3-21.8
		H271.6z"/>
	<path class="st1" d="M292.3,51v8h-4.8c-3.4,0-6.1-0.8-8-2.5c-1.9-1.7-2.9-4.4-2.9-8.2V36.1H273v-7.8h3.7v-7.5h9.4v7.5h6.2v7.8h-6.2
		v12.3c0,0.9,0.2,1.6,0.7,2c0.4,0.4,1.2,0.6,2.2,0.6H292.3z"/>
</g>
</svg>
