<svg id="Group_788" data-name="Group 788" xmlns="http://www.w3.org/2000/svg" xmlns:xlink="http://www.w3.org/1999/xlink" width="665.437" height="253.757" viewBox="0 0 665.437 253.757">
  <defs>
    <clipPath id="clip-path">
      <rect id="Rectangle_360" data-name="Rectangle 360" width="665.437" height="253.757" fill="none" stroke="rgba(0,0,0,0)" stroke-width="1"/>
    </clipPath>
  </defs>
  <g id="Group_787" data-name="Group 787" clip-path="url(#clip-path)">
    <path id="Path_2518" data-name="Path 2518" d="M90.235,196.313q33.73-.243,52.374-18.858t18.4-52.9l-.63-87.277-35.979.26.62,85.941q.156,21.6-8.766,31.791T90.238,165.586q-35.081.254-35.381-41.6l-.62-85.941-36.43.262.63,87.278q.246,34.289,19.157,52.631T90.235,196.313Z" fill="none" stroke="#a3a3a3" stroke-miterlimit="10" stroke-width="0.5"/>
    <rect id="Rectangle_359" data-name="Rectangle 359" width="36.43" height="155.856" transform="matrix(1, -0.007, 0.007, 1, 193.656, 37.035)" fill="none" stroke="#a3a3a3" stroke-miterlimit="10" stroke-width="0.5"/>
    <path id="Path_2519" data-name="Path 2519" d="M239.912,214.828l31.257-.226,72.7-210.266-31.257.225Z" fill="none" stroke="#a3a3a3" stroke-miterlimit="10" stroke-width="0.5"/>
    <path id="Path_2520" data-name="Path 2520" d="M421.242,193.926q33.73-.243,52.375-18.858t18.4-52.9l-.629-87.277-35.98.26.62,85.941q.156,21.6-8.766,31.792T421.245,163.2q-35.079.253-35.381-41.6l-.62-85.941-36.429.262.629,87.278q.248,34.288,19.157,52.631T421.242,193.926Z" fill="none" stroke="#a3a3a3" stroke-miterlimit="10" stroke-width="0.5"/>
    <path id="Path_2521" data-name="Path 2521" d="M664.759,189.5l-59.273-80.174,54.327-75.65-39.353.283-35.166,50.8L548.725,34.476l-41.376.3,55.871,76.191-57.67,79.682,41.826-.3,36.939-54.372L622.708,189.8Z" fill="none" stroke="#a3a3a3" stroke-miterlimit="10" stroke-width="0.5"/>
  </g>
</svg>
