<svg id="Group_1118" data-name="Group 1118" xmlns="http://www.w3.org/2000/svg" xmlns:xlink="http://www.w3.org/1999/xlink" width="29.441" height="22.083" viewBox="0 0 29.441 22.083">
  <defs>
    <clipPath id="clip-path">
      <rect id="Rectangle_560" data-name="Rectangle 560" width="29.441" height="22.083" fill="none"/>
    </clipPath>
  </defs>
  <g id="Group_1094" data-name="Group 1094">
    <g id="Group_1093" data-name="Group 1093" clip-path="url(#clip-path)">
      <path id="Path_3177" data-name="Path 3177" d="M0,6.981A1.481,1.481,0,0,1,.472,5.857,20.178,20.178,0,0,1,15.933.042a19.929,19.929,0,0,1,12.762,5.55c.129.122.258.246.376.378a1.377,1.377,0,0,1-1.924,1.966c-.629-.54-1.219-1.129-1.88-1.625a17.1,17.1,0,0,0-11.8-3.49,16.978,16.978,0,0,0-11,4.961,1.408,1.408,0,0,1-2.407-.47A2.549,2.549,0,0,1,0,6.981" transform="translate(0 0)" fill="#fff"/>
    </g>
  </g>
  <g id="Group_1096" data-name="Group 1096">
    <g id="Group_1095" data-name="Group 1095" clip-path="url(#clip-path)">
      <path id="Path_3178" data-name="Path 3178" d="M348.284,483.741a2.763,2.763,0,1,1,2.754-2.754,2.746,2.746,0,0,1-2.754,2.754" transform="translate(-333.563 -461.659)" fill="#fff"/>
    </g>
  </g>
  <g id="Group_1098" data-name="Group 1098">
    <g id="Group_1097" data-name="Group 1097" clip-path="url(#clip-path)">
      <path id="Path_3179" data-name="Path 3179" d="M237.836,323.634a1.443,1.443,0,0,1-1.043-.458,6.226,6.226,0,0,0-3.083-1.67,6.327,6.327,0,0,0-5.585,1.381c-.146.121-.28.256-.422.382a1.379,1.379,0,0,1-1.921-1.977,8.362,8.362,0,0,1,3.383-2.161,9.04,9.04,0,0,1,9.468,1.988,1.858,1.858,0,0,1,.511.785,1.348,1.348,0,0,1-1.309,1.73" transform="translate(-217.581 -307.543)" fill="#fff"/>
    </g>
  </g>
  <g id="Group_1100" data-name="Group 1100">
    <g id="Group_1099" data-name="Group 1099" clip-path="url(#clip-path)">
      <path id="Path_3180" data-name="Path 3180" d="M134.26,164.748a1.388,1.388,0,0,1-.839,1.259,1.347,1.347,0,0,1-1.538-.314,11.991,11.991,0,0,0-16.847-.028,1.383,1.383,0,1,1-1.953-1.954,14.39,14.39,0,0,1,7.69-4.012,14.6,14.6,0,0,1,8.785,1.073,14.3,14.3,0,0,1,4.245,2.933,1.377,1.377,0,0,1,.457,1.042" transform="translate(-108.725 -153.927)" fill="#fff"/>
    </g>
  </g>
</svg>
